<svg width="360" height="76" viewBox="0 0 360 76" fill="none" xmlns="http://www.w3.org/2000/svg">
<path d="M0 29C0 26.2386 2.23858 24 5 24C7.76142 24 10 26.2386 10 29V55H0V29Z" fill="black"/>
<path d="M58.752 46.6436C58.752 48.4632 58.304 50.0309 57.4082 51.3467C56.5264 52.6624 55.2526 53.6702 53.5869 54.3701C51.9352 55.07 49.9616 55.4199 47.666 55.4199C46.5462 55.4199 45.4754 55.3569 44.4536 55.231C43.4318 55.105 42.466 54.923 41.5562 54.6851C40.6603 54.4331 39.8415 54.1322 39.0996 53.7822V49.0371C40.3454 49.583 41.7381 50.0799 43.2778 50.5278C44.8175 50.9618 46.3853 51.1787 47.981 51.1787C49.2827 51.1787 50.3605 51.0107 51.2144 50.6748C52.0822 50.3249 52.7261 49.835 53.146 49.2051C53.5659 48.5612 53.7759 47.8123 53.7759 46.9585C53.7759 46.0487 53.5309 45.2788 53.041 44.6489C52.5511 44.019 51.8092 43.4451 50.8154 42.9272C49.8356 42.3953 48.6038 41.8285 47.1201 41.2266C46.1123 40.8206 45.1465 40.3587 44.2227 39.8408C43.3128 39.3229 42.501 38.714 41.7871 38.0142C41.0732 37.3143 40.5063 36.4884 40.0864 35.5366C39.6805 34.5708 39.4775 33.437 39.4775 32.1353C39.4775 30.3996 39.8905 28.9159 40.7163 27.6841C41.5562 26.4523 42.7319 25.5075 44.2437 24.8496C45.7694 24.1917 47.547 23.8628 49.5767 23.8628C51.1864 23.8628 52.6981 24.0308 54.1118 24.3667C55.5396 24.7026 56.9393 25.1785 58.311 25.7944L56.7153 29.8467C55.4556 29.3288 54.2308 28.9159 53.041 28.6079C51.8652 28.3 50.6615 28.146 49.4297 28.146C48.3659 28.146 47.4631 28.307 46.7212 28.6289C45.9793 28.9508 45.4124 29.4058 45.0205 29.9937C44.6426 30.5675 44.4536 31.2534 44.4536 32.0513C44.4536 32.9471 44.6706 33.703 45.1045 34.3188C45.5524 34.9207 46.2383 35.4736 47.1621 35.9775C48.0999 36.4814 49.3037 37.0413 50.7734 37.6572C52.4671 38.3571 53.9019 39.092 55.0776 39.8618C56.2674 40.6317 57.1772 41.5555 57.8071 42.6333C58.437 43.6971 58.752 45.0339 58.752 46.6436ZM90.4351 31.3164C93.0386 31.3164 94.9982 31.9883 96.314 33.332C97.6437 34.6758 98.3086 36.8314 98.3086 39.7988V55H93.3745V40.6807C93.3745 38.917 93.0316 37.5872 92.3457 36.6914C91.6598 35.7956 90.617 35.3477 89.2173 35.3477C87.2576 35.3477 85.8439 35.9775 84.9761 37.2373C84.1222 38.4831 83.6953 40.2957 83.6953 42.6753V55H78.7612V40.6807C78.7612 39.5049 78.6073 38.5251 78.2993 37.7412C78.0054 36.9434 77.5505 36.3485 76.9346 35.9565C76.3187 35.5506 75.5418 35.3477 74.604 35.3477C73.2463 35.3477 72.1615 35.6556 71.3496 36.2715C70.5518 36.8874 69.9779 37.7972 69.6279 39.001C69.278 40.1908 69.103 41.6535 69.103 43.3892V55H64.1689V31.7573H68.0112L68.7041 34.8857H68.9771C69.453 34.0739 70.0409 33.409 70.7407 32.8911C71.4546 32.3592 72.2454 31.9673 73.1133 31.7153C73.9811 31.4494 74.884 31.3164 75.8218 31.3164C77.5575 31.3164 79.0202 31.6243 80.21 32.2402C81.3997 32.8421 82.2886 33.766 82.8765 35.0117H83.2544C83.9823 33.752 84.9971 32.8211 86.2988 32.2192C87.6006 31.6174 88.9793 31.3164 90.4351 31.3164ZM114.308 31.3164C117.247 31.3164 119.466 31.9673 120.963 33.269C122.475 34.5708 123.231 36.6004 123.231 39.3579V55H119.725L118.78 51.7036H118.612C117.954 52.5435 117.275 53.2363 116.575 53.7822C115.875 54.3281 115.063 54.734 114.14 55C113.23 55.2799 112.117 55.4199 110.801 55.4199C109.416 55.4199 108.177 55.168 107.085 54.6641C105.993 54.1462 105.132 53.3623 104.502 52.3125C103.873 51.2627 103.558 49.9329 103.558 48.3232C103.558 45.9297 104.446 44.131 106.224 42.9272C108.016 41.7235 110.717 41.0586 114.329 40.9326L118.36 40.7856V39.5679C118.36 37.9582 117.982 36.8104 117.226 36.1245C116.484 35.4386 115.434 35.0957 114.077 35.0957C112.915 35.0957 111.788 35.2637 110.696 35.5996C109.604 35.9355 108.541 36.3485 107.505 36.8384L105.909 33.353C107.043 32.7511 108.331 32.2612 109.772 31.8833C111.228 31.5054 112.74 31.3164 114.308 31.3164ZM118.339 43.8931L115.336 43.998C112.873 44.082 111.144 44.502 110.15 45.2578C109.157 46.0137 108.66 47.0495 108.66 48.3652C108.66 49.513 109.003 50.3529 109.688 50.8848C110.374 51.4027 111.277 51.6616 112.397 51.6616C114.105 51.6616 115.518 51.1787 116.638 50.2129C117.772 49.2331 118.339 47.7983 118.339 45.9087V43.8931ZM141.917 31.3164C142.309 31.3164 142.736 31.3374 143.198 31.3794C143.66 31.4214 144.059 31.4774 144.395 31.5474L143.933 36.1665C143.639 36.0825 143.275 36.0195 142.841 35.9775C142.421 35.9355 142.043 35.9146 141.708 35.9146C140.826 35.9146 139.986 36.0615 139.188 36.3555C138.39 36.6354 137.683 37.0693 137.067 37.6572C136.451 38.2311 135.969 38.952 135.619 39.8198C135.269 40.6877 135.094 41.6955 135.094 42.8433V55H130.139V31.7573H134.002L134.674 35.8516H134.905C135.367 35.0257 135.941 34.2699 136.626 33.584C137.312 32.8981 138.096 32.3522 138.978 31.9463C139.874 31.5264 140.854 31.3164 141.917 31.3164ZM157.35 51.4307C157.993 51.4307 158.63 51.3747 159.26 51.2627C159.89 51.1367 160.464 50.9897 160.982 50.8218V54.5591C160.436 54.797 159.729 55 158.861 55.168C157.993 55.3359 157.091 55.4199 156.153 55.4199C154.837 55.4199 153.654 55.203 152.604 54.769C151.555 54.3211 150.722 53.5583 150.106 52.4805C149.49 51.4027 149.182 49.9119 149.182 48.0083V35.5156H146.012V33.311L149.413 31.5684L151.03 26.5923H154.137V31.7573H160.793V35.5156H154.137V47.9453C154.137 49.1211 154.431 49.9959 155.019 50.5698C155.607 51.1437 156.384 51.4307 157.35 51.4307ZM190.46 28.146C188.991 28.146 187.675 28.4119 186.513 28.9438C185.365 29.4757 184.393 30.2456 183.595 31.2534C182.797 32.2472 182.188 33.458 181.768 34.8857C181.348 36.2995 181.138 37.8952 181.138 39.6729C181.138 42.0524 181.474 44.103 182.146 45.8247C182.818 47.5324 183.84 48.8481 185.211 49.772C186.583 50.6818 188.319 51.1367 190.418 51.1367C191.72 51.1367 192.987 51.0107 194.219 50.7588C195.451 50.5068 196.724 50.1639 198.04 49.73V54.0132C196.794 54.5031 195.535 54.86 194.261 55.084C192.987 55.3079 191.517 55.4199 189.852 55.4199C186.716 55.4199 184.113 54.769 182.041 53.4673C179.983 52.1655 178.444 50.3319 177.422 47.9663C176.414 45.6007 175.91 42.8293 175.91 39.6519C175.91 37.3283 176.232 35.2007 176.876 33.269C177.52 31.3374 178.458 29.6717 179.689 28.272C180.921 26.8582 182.44 25.7734 184.246 25.0176C186.065 24.2477 188.144 23.8628 190.481 23.8628C192.021 23.8628 193.533 24.0378 195.017 24.3877C196.514 24.7236 197.9 25.2065 199.174 25.8364L197.41 29.9937C196.346 29.4897 195.234 29.0558 194.072 28.6919C192.91 28.328 191.706 28.146 190.46 28.146ZM213.241 31.3164C216.181 31.3164 218.399 31.9673 219.897 33.269C221.409 34.5708 222.165 36.6004 222.165 39.3579V55H218.658L217.713 51.7036H217.545C216.888 52.5435 216.209 53.2363 215.509 53.7822C214.809 54.3281 213.997 54.734 213.073 55C212.163 55.2799 211.051 55.4199 209.735 55.4199C208.349 55.4199 207.11 55.168 206.019 54.6641C204.927 54.1462 204.066 53.3623 203.436 52.3125C202.806 51.2627 202.491 49.9329 202.491 48.3232C202.491 45.9297 203.38 44.131 205.158 42.9272C206.949 41.7235 209.651 41.0586 213.262 40.9326L217.293 40.7856V39.5679C217.293 37.9582 216.916 36.8104 216.16 36.1245C215.418 35.4386 214.368 35.0957 213.01 35.0957C211.848 35.0957 210.722 35.2637 209.63 35.5996C208.538 35.9355 207.474 36.3485 206.438 36.8384L204.843 33.353C205.977 32.7511 207.264 32.2612 208.706 31.8833C210.162 31.5054 211.674 31.3164 213.241 31.3164ZM217.272 43.8931L214.27 43.998C211.806 44.082 210.078 44.502 209.084 45.2578C208.09 46.0137 207.593 47.0495 207.593 48.3652C207.593 49.513 207.936 50.3529 208.622 50.8848C209.308 51.4027 210.211 51.6616 211.331 51.6616C213.038 51.6616 214.452 51.1787 215.572 50.2129C216.706 49.2331 217.272 47.7983 217.272 45.9087V43.8931ZM255.338 31.3164C257.942 31.3164 259.902 31.9883 261.217 33.332C262.547 34.6758 263.212 36.8314 263.212 39.7988V55H258.278V40.6807C258.278 38.917 257.935 37.5872 257.249 36.6914C256.563 35.7956 255.52 35.3477 254.121 35.3477C252.161 35.3477 250.747 35.9775 249.879 37.2373C249.026 38.4831 248.599 40.2957 248.599 42.6753V55H243.665V40.6807C243.665 39.5049 243.511 38.5251 243.203 37.7412C242.909 36.9434 242.454 36.3485 241.838 35.9565C241.222 35.5506 240.445 35.3477 239.507 35.3477C238.15 35.3477 237.065 35.6556 236.253 36.2715C235.455 36.8874 234.881 37.7972 234.531 39.001C234.181 40.1908 234.006 41.6535 234.006 43.3892V55H229.072V31.7573H232.915L233.607 34.8857H233.88C234.356 34.0739 234.944 33.409 235.644 32.8911C236.358 32.3592 237.149 31.9673 238.017 31.7153C238.884 31.4494 239.787 31.3164 240.725 31.3164C242.461 31.3164 243.924 31.6243 245.113 32.2402C246.303 32.8421 247.192 33.766 247.78 35.0117H248.158C248.886 33.752 249.9 32.8211 251.202 32.2192C252.504 31.6174 253.883 31.3164 255.338 31.3164ZM282.024 31.3164C284.782 31.3164 286.993 32.3242 288.659 34.3398C290.339 36.3555 291.179 39.3509 291.179 43.3262C291.179 45.9577 290.787 48.1763 290.003 49.9819C289.233 51.7736 288.148 53.1313 286.749 54.0552C285.363 54.965 283.746 55.4199 281.898 55.4199C280.723 55.4199 279.701 55.266 278.833 54.958C277.965 54.6501 277.223 54.2511 276.607 53.7612C275.992 53.2573 275.474 52.7114 275.054 52.1235H274.76C274.83 52.6834 274.893 53.3063 274.949 53.9922C275.019 54.6641 275.054 55.2799 275.054 55.8398V65.3091H270.099V31.7573H274.13L274.823 34.9697H275.054C275.488 34.3118 276.013 33.703 276.628 33.1431C277.258 32.5832 278.014 32.1423 278.896 31.8203C279.792 31.4844 280.835 31.3164 282.024 31.3164ZM280.702 35.3477C279.344 35.3477 278.252 35.6206 277.426 36.1665C276.614 36.6984 276.02 37.5033 275.642 38.5811C275.278 39.6589 275.082 41.0096 275.054 42.6333V43.3262C275.054 45.0479 275.229 46.5106 275.579 47.7144C275.943 48.9041 276.537 49.814 277.363 50.4438C278.203 51.0597 279.337 51.3677 280.765 51.3677C281.968 51.3677 282.962 51.0387 283.746 50.3809C284.544 49.723 285.139 48.7852 285.531 47.5674C285.923 46.3496 286.119 44.9149 286.119 43.2632C286.119 40.7576 285.671 38.812 284.775 37.4263C283.893 36.0405 282.535 35.3477 280.702 35.3477ZM317.151 31.7573V55H313.267L312.595 51.8716H312.322C311.832 52.6694 311.209 53.3343 310.453 53.8662C309.697 54.3841 308.857 54.769 307.934 55.021C307.01 55.2869 306.037 55.4199 305.015 55.4199C303.265 55.4199 301.768 55.126 300.522 54.5381C299.29 53.9362 298.345 53.0124 297.688 51.7666C297.03 50.5208 296.701 48.9111 296.701 46.9375V31.7573H301.656V46.0137C301.656 47.8193 302.02 49.1701 302.748 50.0659C303.489 50.9618 304.637 51.4097 306.191 51.4097C307.689 51.4097 308.878 51.1017 309.76 50.4858C310.642 49.87 311.265 48.9601 311.629 47.7563C312.007 46.5526 312.196 45.0758 312.196 43.3262V31.7573H317.151ZM339.848 48.3652C339.848 49.891 339.477 51.1787 338.735 52.2285C337.993 53.2783 336.908 54.0762 335.48 54.6221C334.067 55.154 332.331 55.4199 330.273 55.4199C328.65 55.4199 327.25 55.3009 326.074 55.063C324.912 54.839 323.814 54.4891 322.778 54.0132V49.751C323.884 50.2689 325.122 50.7168 326.494 51.0947C327.88 51.4727 329.189 51.6616 330.42 51.6616C332.044 51.6616 333.213 51.4097 333.927 50.9058C334.641 50.3879 334.998 49.702 334.998 48.8481C334.998 48.3442 334.851 47.8963 334.557 47.5044C334.277 47.0985 333.745 46.6855 332.961 46.2656C332.191 45.8317 331.057 45.3138 329.56 44.7119C328.09 44.124 326.851 43.5361 325.843 42.9482C324.835 42.3604 324.073 41.6535 323.555 40.8276C323.037 39.9878 322.778 38.917 322.778 37.6152C322.778 35.5576 323.59 33.9969 325.213 32.9331C326.851 31.8553 329.014 31.3164 331.701 31.3164C333.129 31.3164 334.473 31.4634 335.732 31.7573C337.006 32.0373 338.252 32.4502 339.47 32.9961L337.916 36.7124C336.866 36.2505 335.809 35.8726 334.746 35.5786C333.696 35.2707 332.625 35.1167 331.533 35.1167C330.259 35.1167 329.287 35.3127 328.615 35.7046C327.957 36.0965 327.628 36.6564 327.628 37.3843C327.628 37.9302 327.789 38.3921 328.111 38.77C328.433 39.1479 328.986 39.5259 329.77 39.9038C330.567 40.2817 331.673 40.7507 333.087 41.3105C334.473 41.8424 335.669 42.4023 336.677 42.9902C337.699 43.5641 338.483 44.271 339.029 45.1108C339.575 45.9507 339.848 47.0355 339.848 48.3652Z" fill="black"/>
<path d="M14 40.9694C14 38.2249 16.2249 36 18.9694 36C21.7139 36 23.9387 38.2249 23.9387 40.9694V55H14V40.9694Z" fill="black"/>
</svg>
